<svg version="1" xmlns="http://www.w3.org/2000/svg" width="818.667" height="818.667" viewBox="0 0 614.000000 614.000000"><path d="M284.9 21.4c-.2.2-3.8.7-7.9 1-8.3.8-12.8 1.3-18 2.2-1.9.4-4.4.8-5.5 1-13.8 2.1-37.7 8.9-54.3 15.6C144.7 62.9 99 100 66.1 149c-4.2 6.3-10.1 16-13.1 21.5-4.7 8.6-5.4 10.8-5.5 15.6 0 4.6.5 6.2 2.8 9.2 3.6 4.8 8.1 7 13.5 6.8 8.4-.3 11.2-2.9 19.7-18.1 38.4-68.8 107.8-116.4 185.7-127.4 22-3.2 53-2.9 74.8.5 11.4 1.8 12.3 1.9 22.5 4.5 52.3 13.1 99.9 43.1 134 84.6 4.2 5.1 8.3 10 9 10.9 6.5 8.2 17.2 26.4 25.3 43 5.6 11.7 7.1 14.1 10.6 16.3 4.6 3 10.4 3.4 15.7 1.2 4.2-1.7 6.4-4 8.3-8.6 2.6-6.3 1.3-11.1-7.3-28.4-6.8-13.6-22.2-38.8-28.3-46.1-.9-1.1-5-6.1-9.1-11-32.4-39-77.1-69.9-125.3-86.5-10.4-3.6-27-8.3-33.7-9.6-4-.7-7.2-1.4-10-2-3.4-.7-6.3-1.1-13.9-1.9-3.2-.3-6.8-.9-8-1.2-2.6-.6-48.3-1.5-48.9-.9z"/><path d="M286.9 78.4c-.2.2-3.3.6-6.9 1-5.7.5-10.2 1.2-25.9 4.1-11.2 2-38.4 11.6-51.1 18-23.6 11.9-41.5 24.9-60.5 43.9-15 15.1-17.5 18.1-28 33.6-9.2 13.8-17.5 29.1-22.6 41.7l-3.3 8.3-22 .1c-12.2.1-23.1.4-24.4.7-1.2.4-3.8 2.2-5.7 4-6.2 6.1-6.6 15.3-.8 22.5 4.3 5.4 6.2 5.7 43.2 5.7h34l3.6-11.8c12.8-40.9 37.2-75.3 72.2-101.3 5-3.8 9.4-6.9 9.6-6.9.3 0 3.6-1.9 7.3-4.2 16.8-10.2 44.1-20.5 62.4-23.4 1.4-.2 3.4-.6 4.5-.9 12.5-2.7 50-2.7 63.7.1 1.3.2 3.7.7 5.3.9 48.9 8.5 99.1 42 126.7 84.5 4.3 6.6 6.3 8.5 10.8 10.3 6.8 2.8 14.9.4 19.2-5.5 1.8-2.6 2.3-4.6 2.3-9.8 0-6.2-.2-6.8-5.5-14.5-24.9-36.5-61.2-66.6-100-83-16.3-6.9-38.5-13.3-53.5-15.5-4.4-.6-9.1-1.4-10.5-1.6-2.9-.7-43.5-1.5-44.1-1z"/><path d="M281.1 139.6c-16.3 2.4-35.5 8.1-48.9 14.6-45.3 21.9-79 62.2-91.7 110l-1.8 6.6H43.2l-4.3 2.3c-13.5 7.6-9.5 28.5 5.8 30.2 2.6.3 31.3.5 63.7.4 51.5-.2 58.9-.4 59.1-1.7.1-.8.6-4.1.9-7.4 3.3-26.3 12-48.7 26.8-68.4 21.7-29 53.6-48.1 89.6-53.7 8.7-1.4 34-1.4 41.2 0 15.6 2.9 28.1 7 40.7 13.4 7.2 3.6 11.2 6.2 25.5 16.3 6 4.2 10.6 5.2 16.1 3.3 9.4-3.2 13.7-13.1 9.7-22.1-4.9-11.2-46.8-35.2-69.5-39.8-1.1-.3-4.9-1.1-8.5-2-9.6-2.3-14.8-2.8-33-3.1-10.5-.2-19.9.2-25.9 1.1z"/><path d="M247 241.6c-4.2 1.8-8.6 6.7-10.2 11.4-1.7 4.8-1.4 16.7.5 21.1 2.1 4.8 7.8 9.6 12.2 10.5 11.5 2.1 20.7-2.7 23.4-12.4l1-3.2h-5c-3.7 0-4.9.4-4.9 1.5 0 3.1-4.7 6.5-8.8 6.5-6.2 0-10.2-5.5-10.2-14 0-9.3 4.1-15 10.8-15 3.1 0 4.9 1.3 8.8 6.2 1.2 1.5 7.7 1.9 8.2.5 1.5-4.4-4.9-12.3-11.3-13.7-5.7-1.4-10.5-1.1-14.5.6zM498.2 240.9c-1.1.7-1.5 2.4-1.3 5.8.1 2 .7 2.3 4.1 2.3 3.4 0 4-.3 4.1-2.3.2-2.5-.1-5-.6-5.5-.6-.7-5.4-.9-6.3-.3zM460.2 244.9v4l4.2-.2c4-.2 4.1-.3 4.4-4l.3-3.7h-9l.1 3.9zM442.2 243.8c-.7.2-1.2 2.1-1.2 4.3 0 3.2-.3 3.9-2 3.9-1.5 0-2 .7-2 2.5 0 3.5.3 4 2.3 3.9 1.5-.1 1.7 1 1.8 9.5.1 16.3.1 16.2 8.3 16.7l5.6.3v-3.5c0-3-.3-3.4-2.5-3.4-2.7 0-2.6.5-2.7-11.1-.1-7.6.6-9.2 3.3-8.4 1.6.5 1.9.1 1.9-2.9 0-3.3-.3-3.6-2.8-3.6s-2.7-.3-2.7-4.3-.1-4.2-3.1-4.3c-1.7 0-3.6.2-4.2.4zM478.5 243.8c-.3.3-.5 2.2-.5 4.3 0 3.1-.4 3.8-2.2 4.1-1.8.2-2.3.9-2.2 3.3 0 2.4.4 3 2.2 2.9 2.1-.1 2.2.2 2.2 11 0 13.2.7 14.7 6.9 15.2 5.8.4 7.1-.3 7.1-3.6 0-2.4-.5-2.9-2.7-3.2l-2.8-.3v-8.8c0-4.9.2-9.2.5-9.6.3-.4 1.4-.7 2.5-.6 1.6 0 2-.7 2.1-3.3.1-3-.1-3.3-2.2-2.9-2.5.4-2.5.3-2.8-5.5-.1-3-.3-3.2-3.9-3.3-2-.1-3.9.1-4.2.3zM289.5 251.7c-6.9 1.9-11.5 9.2-11 17.8.5 10 5.4 14.8 15.5 15.3 5.5.3 7 0 10-2 9.3-6.3 9.3-23.6 0-29.2-3.2-1.8-11-2.9-14.5-1.9zm11.2 10c1 1.5 1.6 4.4 1.6 7.1-.1 3.7-.6 5.1-2.8 6.9-5.6 4.9-12.5 1-12.5-7 0-9.2 9.2-13.9 13.7-7zM329.5 252.6c-1.6.8-3.3 2.1-3.7 2.7-.5.8-.8.4-.8-1.1 0-1.9-.5-2.2-4-2.2h-4l-.1 4.2c-.1 5.1-.1 25.8 0 27.4.1 1 6.9 1 7.9 0 .1-.2.3-5 .3-10.8.1-6.1.6-11 1.3-11.9 1.8-2.5 5.5-3 7.5-1 1.4 1.4 1.6 3.6 1.6 12.9-.1 6.2.3 11.2.7 11.3.4 0 2.3.1 4.1.2l3.2.1.5-11.7c.5-11.4 1-13.3 4-13.7 5.7-.8 6.3.8 6.2 14.2 0 5.9.4 10.1 1 10.4.6.4 2.6.7 4.5.8l3.3.1v-12.8c0-16.4-1.1-18.8-8.9-20.3-3-.6-8.8 1.3-9.5 3.1-.4 1.2-1.2 1-4.2-1-4.3-2.9-6.7-3.1-10.9-.9zM382.3 253c-2.7 1.6-3.3 1.7-3.3.5 0-1.1-1.2-1.5-4.4-1.5h-4.4l.1 22.4v22.4l4.1-.2 4.1-.1v-7.3c0-3.9.2-7.2.5-7.2s1.4.7 2.4 1.5c2.7 2.1 9.5 1.9 13.2-.4 4.2-2.6 6.4-7.7 6.4-15 0-7.6-2.2-12.3-7-15-4.7-2.6-7.6-2.6-11.7-.1zm8.2 8.3c1.4 2.2 2 5.7 1.6 10.3-.2 2.9-3.8 6.4-6.6 6.4-4.2 0-6.5-3.3-6.5-9.3 0-4 .5-5.9 2-7.5 2.8-3 7.5-2.9 9.5.1zM415 251.8c-6.2 2.1-10 7.8-10.4 15.3-.6 10.9 4.1 16.9 14 17.7 3.1.3 6.7-.1 8.4-.8 3.2-1.3 8-6.3 8-8.4 0-2.1-7.2-1.3-10.3 1-2 1.6-3.4 2-5.7 1.5-3.2-.6-7.1-5.3-5.6-6.8.4-.4 5.5-.8 11.4-.8h10.7l-.2-4.3c-.2-5-2.6-9.6-6.4-12.4-2.6-2-10.8-3.1-13.9-2zm10.4 9.4c.9 1.2 1.6 2.6 1.6 3 0 .5-3.1.7-7 .6-3.8-.1-7-.5-7-.8 0-.3.7-1.6 1.6-2.8 1.1-1.6 2.5-2.2 5.4-2.2 2.9 0 4.3.6 5.4 2.2zM553.2 252.6c-10.2 4.3-12 23.7-2.7 29.8 4.3 2.9 11.5 3.5 16.2 1.5 3.9-1.7 8.3-6 8.3-8.4 0-1.8-7.4-1.3-9.4.7-1 1-2.2 1.9-2.7 1.9-.5.1-1.5.2-2.1.3-3.7.6-9.4-5.1-7.3-7.2.3-.4 5.4-.7 11.3-.7h10.7V268c.3-12.4-11-20.2-22.3-15.4zm12.1 8.5c.9 1.2 1.7 2.5 1.7 2.9 0 .5-3.1.8-7 .8-3.8 0-7-.2-7-.5 0-1.5 2.5-4.5 4.3-5.2 3.1-1.2 5.9-.5 8 2zM460.2 268c.1 12.4.5 16 1.5 16.1.7.1 2.5.1 4.1.2l2.7.1.2-16.2.2-16.2h-8.8l.1 16zM496.9 255.7c-.5 29.1-.4 29.7 5.4 28.6 2.9-.6 2.8-.4 2.8-11.8V260l-.1-8h-4c-3.9 0-4 .1-4.1 3.7zM510.8 254.2c.4 1.3 2.9 8.5 5.6 16 5.2 14.3 5.4 14.6 11.3 14 3.1-.4 3.2-.7 8.7-15.8 3.1-8.5 5.6-15.7 5.6-15.9 0-.3-2-.5-4.5-.5h-4.4l-2.1 7.2c-1.2 4-2.6 9-3.2 11.1-1.4 4.6-2 4-4-3.8-.9-3.3-2.1-7.9-2.8-10.3l-1.1-4.2H515c-4.5 0-4.8.1-4.2 2.2zM247.3 313.4c-4.3 1.9-9 7-10.5 11.5-.6 2-1.2 6.7-1.2 10.6.1 8.4 2.5 14 8.1 18.2 3.3 2.5 4.4 2.8 11.4 2.8 6.3 0 8.3-.4 10.5-2.1 3.7-2.7 6.2-6.2 7.3-10.2l1-3.2h-5c-3.7 0-4.9.4-4.9 1.5 0 3.1-4.7 6.5-8.8 6.5-6.3 0-10.2-5.5-10.2-14.2 0-6.1 2.5-11.6 6.2-13.7 3.8-2.2 9.5-.7 11.8 3.2 1.6 2.6 2.6 3.1 6 3.3 3.7.1 4 0 4-2.5 0-3.4-5.2-9.7-9.3-11.5-4.4-1.7-12.6-1.8-16.4-.2zM314.8 312.8c-1.7.3-1.8 2.2-1.8 21.8 0 16.4.3 21.4 1.3 21.5 2.6.2 6.2-.3 7.2-1.1.6-.5 1.9-.2 2.9.6 3.4 2.4 11 1.8 14.5-1.2 7.6-6.4 7.2-23.8-.7-29-3.9-2.6-11.5-2.4-14.5.4l-2.3 2.1.1-7.3c.1-7.2 0-7.4-2.5-7.8-1.4-.2-3.3-.2-4.2 0zm18.7 20.6c3.6 5.5 1.9 15-3 16.2-1.5.4-3.7.2-4.9-.4-4.7-2.1-5.2-14.6-.8-17.1 3.1-1.9 7.1-1.3 8.7 1.3zM433.4 313.9c-7.9 3.6-11.5 11.3-11 23 .6 13.8 8.2 20.9 21.5 19.9 6.9-.5 11.3-3.2 14.1-8.8 3.1-6 2.7-7-2.5-7-3.4 0-4.5.4-4.5 1.5 0 3.1-4.7 6.5-8.7 6.5-8.5-.1-12.2-7.8-9.8-20.6 1.6-8.7 14.4-11.4 17.8-3.7 1 2.4 1.8 2.8 5.5 3 3.7.1 4.2-.1 4.2-2.1 0-3.2-3.9-8.6-7.8-10.9-4.8-2.8-13.7-3.2-18.8-.8zM468.1 312.8c-.8.3-1.1 7-1.1 21.8 0 18.3.2 21.4 1.5 21.5.8.1 2.7.1 4.2.2l2.8.1v-43.2l-3.1-.4c-1.8-.2-3.7-.2-4.3 0z"/><path d="M42.6 314.1c-12 3.2-16.1 19.8-6.9 28.1 4.8 4.4 6.9 4.6 48.8 4.7 22 0 43.4.1 47.6.1h7.7l.6 3.4c1 5.3 4.3 15.2 7.9 23.6 15.8 37.5 43.9 67.4 80.2 85.5 18.7 9.3 38.3 15.3 56.9 17.3 15.5 1.6 42.9.4 52.6-2.3.8-.2 2.9-.7 4.5-1 5.9-1 7.3-1.4 16.6-4.5 21.8-7.3 47.4-22.2 51.4-30 5.7-11-2.3-24-14.6-24-3.9 0-5.9.8-12.2 4.9-26.9 17.6-48.9 24.5-78.2 24.5-20.2.1-35.3-2.8-52.3-9.7-46.4-19.1-79.2-62.9-84.7-113.2-.4-3.3-1.1-6.4-1.5-6.9-.9-.9-120.8-1.4-124.4-.5zM519.6 334c0 11.6.4 21.3.7 21.6.3.4 2.3.7 4.4.7 3.1.1 3.7-.3 3.5-1.7-.3-1.5 0-1.5 2.7.5 2.4 1.8 3.9 2.1 7.9 1.7 7.9-.8 12.2-6.5 12.2-16.3 0-13.4-9.3-20.9-19.3-15.5l-3.4 1.8.1-5.6c.2-7.8 0-8.2-4.8-8.2h-4.1l.1 21zm19.4-2c4.9 2.6 3.7 16.3-1.6 17.6-5.6 1.4-9.9-3.9-8.9-11.2.8-6.3 5.4-9.1 10.5-6.4zM355.9 325.1c-4.4 2.2-6.7 5.6-7.7 11.2-2.2 12 4.2 20.7 15.3 20.7 7.4 0 13.5-3.7 14.7-8.9.6-2.5-6.8-2.2-9.9.5-3.8 3.2-11.3 1.5-11.3-2.6 0-1.1-.1-2.3-.2-2.7-.2-.4 4.7-.8 10.7-.8h11l-.1-4c-.2-5-.6-6.5-2.4-9.1-4.1-5.7-13.5-7.7-20.1-4.3zm12.4 7.7c3.4 3 2.1 4.1-4.8 4.1-6.7 0-7.8-.9-5.2-4.1 2.3-2.9 6.5-3 10 0zM397.1 324.1c-1.3.5-3 1.7-3.7 2.7-1.3 1.7-1.5 1.5-1.8-1.1 0-.7-1.8-1.3-4.1-1.5l-4.1-.3.1 16.1c0 8.8.3 16 .7 16.1.5 0 2.3.1 4.1.2l3.2.1.5-10c.3-5.4 1-10.7 1.4-11.7.5-1 2.4-2 4.6-2.3 4.1-.7 5.1-2.3 4.3-6.8-.6-2.8-1.4-3-5.2-1.5zM562.3 324.5c-4.5 1.9-7.3 6.7-6.3 10.9 1.2 5.6.3 5.1 18.3 10.2.9.3 1.7 1.2 1.7 2 0 4-11.2 3.6-12.5-.5-.7-2.3-8.5-1.7-8.5.8 0 5.2 6.4 9.1 15 9.1 9 0 13.4-2.7 14.5-8.9 1.1-6.2-3-9.7-13.7-12-6.3-1.3-7.6-2.4-5.8-4.6 1.9-2.3 7.6-1.9 9.4.7 1.1 1.6 2.5 2.1 5.2 2 2-.1 3.9-.4 4.2-.7 1.1-1.1-3-7.3-5.6-8.5-3.9-1.8-12.2-2.1-15.9-.5z"/><path d="M277 324.5c0 .3 2.5 7.9 5.5 16.8 3.2 9.2 5.4 17.1 5.1 18.3-.4 1.4-1.6 2.4-3.5 2.7-2.5.5-3 1.1-2.9 3.6.1 2.4.6 3 3 3.3 1.6.3 4.4-.2 6.1-1.1 3-1.5 3.7-3 10.4-22.1 4-11.3 7.2-20.8 7.3-21.3 0-.4-2-.7-4.4-.7h-4.3l-2.8 10.5c-1.6 5.8-3.2 10.8-3.5 11-.4.3-1-.9-1.4-2.5-.3-1.7-.6-3.3-.8-3.8-.1-.4-1.1-3.9-2.3-7.7l-2.1-7-4.7-.3c-2.6-.2-4.7 0-4.7.3zM483.7 324.7c-.3.7-.2 18.8.2 24.5.1.9 1.3 3 2.7 4.7 2.2 2.7 3.2 3.1 7.4 3.1 3.2 0 5.5-.6 7.3-2 2.3-1.8 2.5-1.8 2.9-.2.4 1.2 1.4 1.7 3.9 1.6l3.4-.1.3-16.2.3-16.2-4.3.3-4.3.3-.1 9.2c-.1 5.1-.2 10.2-.3 11.2-.1 2.7-2.8 5.1-5.4 5.1-4.7 0-5.1-1.2-5.4-13.2-.1-6.2-.2-11.6-.2-12.1-.1-.4-1.9-.7-4-.7-2.2 0-4.2.3-4.4.7zM41.2 355.7c-9.9 3.4-13.7 15.4-7.7 24.5 4.5 6.8 6.1 7.2 32.2 7.2l23.3.1 3.6 8.5c32.6 76.9 104 130.4 186.4 139.7 11.3 1.2 44.2.9 55-.6 8-1.1 14.3-2.2 25-4.6.8-.2 5.3-1.4 10-2.8 47.7-14.1 89.3-43 118.9-82.3 9.6-12.8 11.1-15.8 11.1-21.6 0-9.1-7.1-15.9-16.6-16-6.7 0-9.7 2.4-18.9 14.8C440.9 453 413 475 380 488.7c-8.9 3.7-24.1 8.8-29.2 9.9-6.1 1.2-18.7 3.5-21.8 3.9-6.4 1-37.4 1.3-44.5.4-11.3-1.4-13.7-1.7-19.5-2.9-69.3-14.5-125.5-64.9-147.4-132l-4.3-13.5H79c-24.2 0-35.4.3-37.8 1.2z"/><path d="M547.7 401.5c-6 2.1-7.9 4.5-15.5 19.8-32.9 65.8-93.9 115.1-164.2 132.6-14.2 3.5-13.9 3.5-24 5-16.2 2.5-23.2 2.9-43 2.6-11.3-.2-21.4-.5-22.5-.8-1.1-.2-4.7-.8-8-1.1-35.2-4.1-75.1-19.3-106.5-40.5-32.2-21.7-59.3-50.5-78.4-83.3-3.1-5.3-6.8-10.6-8.2-11.7-7.3-5.8-18.2-4.3-23.8 3.2-1.6 2.2-2.1 4.3-2.1 9.5 0 6.6.1 6.9 7.5 19 44.4 73.1 117.7 122.6 201 135.7 1.9.3 4.6.7 6 1 12 2 52.4 2.8 67 1.2 8.6-.9 19.3-2.4 23-3.2 1.4-.3 4.1-.8 6-1.1 11.9-1.9 37.8-9.9 54.5-16.9 61.2-25.3 114.4-75 144.7-135 7.9-15.9 9.3-21.7 6.3-27.5-2.2-4.3-6.3-7.8-10-8.5-1.6-.4-3.7-.8-4.5-1-.8-.2-3.2.2-5.3 1z"/></svg>