<?xml version="1.0" standalone="no"?>
<!DOCTYPE svg PUBLIC "-//W3C//DTD SVG 20010904//EN"
 "http://www.w3.org/TR/2001/REC-SVG-20010904/DTD/svg10.dtd">
<svg version="1.0" xmlns="http://www.w3.org/2000/svg"
 width="600.000000pt" height="600.000000pt" viewBox="0 0 600.000000 600.000000"
 preserveAspectRatio="xMidYMid meet">
<metadata>
Created by potrace 1.11, written by Peter Selinger 2001-2013
</metadata>
<g transform="translate(0.000000,600.000000) scale(0.100000,-0.100000)"
fill="#000000" stroke="none">
<path d="M2790 5950 c-155 -17 -237 -29 -295 -45 -33 -9 -114 -27 -179 -40
-65 -14 -124 -29 -130 -33 -6 -5 -36 -14 -66 -21 -30 -7 -64 -16 -75 -21 -11
-4 -45 -15 -75 -24 -31 -9 -78 -28 -104 -41 -27 -14 -53 -25 -58 -25 -13 0
-179 -82 -267 -132 -46 -26 -85 -48 -86 -48 -10 0 -268 -179 -308 -213 -91
-78 -468 -452 -497 -492 -16 -22 -49 -69 -74 -105 -24 -36 -51 -72 -60 -79 -9
-7 -16 -18 -16 -23 0 -6 -22 -44 -50 -85 -27 -41 -50 -77 -50 -79 0 -2 -12
-23 -27 -47 -30 -46 -93 -172 -93 -184 0 -5 -13 -35 -30 -68 -16 -33 -30 -65
-30 -71 0 -5 -9 -29 -20 -52 -11 -22 -20 -46 -20 -52 0 -5 -4 -18 -9 -28 -15
-30 -51 -149 -51 -170 0 -12 -4 -23 -8 -26 -10 -6 -36 -120 -48 -206 -3 -19
-9 -44 -14 -55 -17 -36 -39 -238 -46 -406 -6 -161 6 -394 25 -481 5 -24 14
-79 21 -123 10 -73 38 -186 88 -365 44 -157 177 -450 283 -627 56 -93 153
-231 226 -323 86 -107 439 -455 491 -484 9 -5 38 -26 64 -47 70 -55 247 -169
329 -212 24 -13 58 -31 74 -40 43 -23 246 -117 254 -117 3 0 40 -14 81 -31
144 -58 427 -131 585 -149 39 -5 99 -14 135 -21 41 -8 158 -13 320 -13 246 0
385 11 540 44 576 122 972 307 1395 651 91 74 377 366 441 449 208 274 347
520 453 805 77 206 109 323 141 525 6 41 16 94 21 117 31 140 36 557 8 708 -5
33 -14 89 -19 125 -14 114 -96 436 -139 545 -123 316 -275 584 -468 825 -47
59 -277 295 -359 370 -154 140 -287 235 -474 342 -106 60 -332 172 -370 183
-14 3 -44 15 -67 26 -24 10 -49 19 -57 19 -8 0 -18 5 -21 10 -3 6 -21 10 -40
10 -19 0 -37 5 -40 10 -3 6 -26 10 -51 10 -29 0 -67 11 -107 29 -68 32 -206
64 -374 87 -128 17 -496 26 -603 14z m-892 -322 c7 -7 12 -36 12 -65 l0 -52
-75 -36 c-41 -19 -79 -35 -85 -35 -8 0 -9 -17 -5 -54 9 -70 -19 -131 -65 -141
-31 -7 -140 -104 -140 -124 0 -6 16 -36 36 -66 34 -50 40 -55 74 -55 54 0 58
-22 15 -87 -37 -55 -36 -57 29 -46 33 5 59 25 158 120 65 62 122 113 127 113
4 0 11 27 15 59 8 66 1 62 110 76 71 10 96 28 89 69 -7 43 10 55 92 67 82 11
125 38 125 79 0 25 4 29 48 38 26 6 77 14 114 17 47 5 71 12 84 26 13 14 30
19 73 19 55 0 57 -1 66 -32 14 -45 64 -61 190 -62 87 -1 106 2 145 23 58 31
196 35 248 8 27 -15 38 -16 72 -6 22 7 51 25 65 40 14 16 29 29 35 29 20 0
297 -190 318 -219 12 -17 34 -34 48 -37 22 -6 25 -11 22 -43 l-3 -36 50 3 c29
2 55 9 61 18 16 20 59 3 67 -27 4 -13 5 -25 3 -26 -2 -2 -34 -9 -72 -17 -60
-11 -144 -48 -144 -63 0 -3 16 -28 36 -55 31 -42 53 -58 147 -104 144 -72 162
-87 212 -164 47 -73 107 -113 185 -125 43 -6 46 -5 58 24 9 20 27 35 57 48 25
10 45 20 45 23 0 3 -17 14 -37 25 -21 11 -60 41 -88 66 -65 61 -123 99 -149
99 -19 1 -17 4 11 27 l33 25 -21 29 c-32 45 -2 47 69 6 32 -19 75 -40 95 -46
36 -12 40 -18 52 -79 4 -18 28 -65 55 -105 39 -58 50 -85 59 -142 18 -118 28
-143 69 -170 25 -16 51 -49 76 -95 35 -65 37 -75 35 -144 -4 -99 10 -121 83
-129 89 -9 108 -20 108 -65 0 -29 -7 -45 -30 -67 -44 -42 -42 -95 4 -138 22
-20 36 -43 38 -62 2 -24 15 -37 61 -68 l58 -38 38 30 c31 25 40 40 50 88 18
80 30 99 31 46 0 -25 -9 -60 -22 -85 -34 -64 -29 -115 20 -236 l42 -103 -6
-137 c-13 -285 69 -576 203 -721 41 -45 57 -55 105 -66 66 -15 60 -20 131 91
77 121 87 114 63 -39 -57 -359 -207 -747 -411 -1067 -141 -221 -404 -521 -568
-651 -25 -19 -27 -19 -27 -2 1 42 61 164 123 252 37 52 67 99 67 105 -1 18
-72 66 -97 66 -13 0 -45 -9 -71 -20 -56 -23 -185 -54 -301 -71 l-85 -12 -30
34 c-17 19 -45 52 -63 73 l-32 40 -98 -2 c-125 -3 -234 17 -348 62 l-89 37
-68 -16 c-37 -8 -108 -15 -158 -15 -72 0 -99 -4 -131 -21 l-41 -21 -69 26 -68
25 -53 -24 c-29 -13 -78 -47 -110 -75 l-57 -50 -92 12 c-78 10 -98 17 -135 45
-48 37 -62 71 -46 108 6 13 14 46 17 72 6 47 5 48 -31 72 -49 31 -125 51 -193
51 l-53 0 5 32 c3 18 12 51 21 73 8 22 15 58 15 80 1 35 -3 42 -30 58 -30 17
-35 17 -80 2 -27 -9 -49 -21 -49 -26 0 -6 -11 -21 -25 -34 -45 -46 -128 -24
-213 55 l-44 41 4 97 3 98 47 65 c46 65 47 65 112 77 69 13 98 10 157 -14 32
-14 39 -14 80 2 55 21 136 19 194 -6 35 -15 54 -34 97 -96 29 -43 56 -82 59
-86 3 -5 20 -5 38 -2 33 7 33 7 26 51 -4 25 -15 65 -26 90 -39 92 -1 174 126
271 l90 68 11 81 c17 116 86 253 128 253 8 0 19 13 24 30 16 45 71 120 95 129
14 6 32 4 49 -5 24 -13 28 -12 45 9 10 13 52 43 93 67 41 23 76 44 77 45 2 1
-3 15 -9 33 l-12 31 -63 -6 c-62 -6 -63 -5 -63 19 0 60 -53 79 -106 37 -66
-52 -109 -51 -58 2 32 34 133 89 163 89 10 0 44 9 73 21 39 14 58 28 66 47 11
25 11 25 7 3 -5 -30 25 -90 72 -141 35 -39 37 -40 104 -40 38 0 69 2 69 5 0 2
-5 16 -12 30 -14 30 -218 201 -219 183 0 -7 -8 8 -17 34 -22 61 -94 144 -190
217 -71 54 -82 59 -145 65 -69 8 -76 12 -119 68 -23 29 -160 79 -196 72 l-32
-6 0 -113 c0 -100 2 -115 22 -140 21 -27 21 -29 5 -57 -9 -15 -22 -68 -28
-116 -7 -48 -15 -91 -19 -95 -9 -11 -89 80 -95 107 -2 12 -6 37 -10 57 -5 32
-11 39 -53 57 -26 11 -65 24 -87 28 -25 4 -50 18 -68 38 -28 29 -28 32 -22
100 6 59 14 80 45 126 41 60 119 137 191 189 26 18 56 46 69 63 l22 30 -29 30
c-22 25 -24 30 -8 23 11 -4 40 -13 65 -19 62 -17 89 -58 83 -123 -5 -48 -13
-59 -71 -102 l-26 -19 59 -11 c33 -7 85 -21 115 -33 30 -12 74 -22 98 -22 46
0 62 12 62 51 0 12 12 36 27 54 l27 32 -25 46 c-20 35 -39 52 -85 76 -51 26
-62 37 -83 82 -23 49 -28 54 -130 106 -58 31 -128 61 -154 68 -47 11 -49 11
-78 -17 -16 -15 -29 -32 -29 -37 0 -15 72 -98 98 -111 l25 -13 -36 -12 c-28
-10 -45 -10 -71 -1 -34 11 -46 35 -46 97 0 41 -16 61 -44 56 -22 -5 -27 -12
-32 -55 -7 -53 -36 -84 -68 -72 -12 5 -16 20 -16 69 0 81 -27 147 -67 164 -15
6 -41 31 -56 56 -28 44 -29 44 -75 39 -30 -4 -56 -15 -72 -30 l-24 -24 31 -32
c17 -18 33 -46 37 -63 4 -16 23 -44 42 -61 29 -25 35 -36 32 -62 l-3 -31 -110
85 c-229 178 -295 250 -295 319 0 20 -7 64 -16 99 -15 60 -18 64 -54 76 -23 7
-54 10 -81 6 -24 -4 -75 -10 -114 -12 l-70 -6 -22 -50 c-25 -54 -24 -54 -118
-32 -34 8 -99 -61 -125 -134 -23 -62 -23 -63 -54 -56 -17 4 -44 17 -60 31 -36
30 -41 25 -25 -22 15 -41 32 -52 149 -95 168 -62 186 -81 201 -210 8 -67 -10
-160 -62 -330 -25 -80 -36 -258 -20 -315 10 -37 9 -42 -19 -75 -45 -54 -105
-157 -138 -240 -32 -79 -45 -151 -63 -341 l-11 -117 56 -194 c31 -106 67 -224
81 -262 35 -95 99 -166 152 -166 13 0 9 8 -14 33 -36 36 -56 89 -78 203 -19
101 -19 104 5 104 11 0 20 -2 20 -5 0 -37 70 -255 102 -318 56 -108 70 -161
56 -208 -9 -32 -7 -41 17 -77 18 -27 44 -49 78 -65 29 -14 87 -57 130 -96 83
-76 100 -85 252 -136 276 -91 389 -166 451 -299 l33 -73 88 -34 c76 -29 100
-34 178 -34 132 -1 121 7 116 -87 -5 -113 -17 -138 -77 -158 -42 -14 -53 -24
-76 -66 -21 -37 -28 -63 -28 -107 0 -69 11 -82 139 -161 63 -38 111 -80 190
-163 93 -99 110 -113 139 -113 31 0 32 -1 32 -45 0 -26 -7 -59 -15 -75 -8 -16
-14 -35 -13 -42 4 -19 -116 -29 -367 -30 -458 -2 -848 85 -1278 287 -499 234
-960 663 -1247 1160 -384 665 -478 1463 -259 2212 225 773 781 1425 1528 1792
128 63 149 69 169 49z m3433 -892 c41 -53 58 -84 54 -97 -3 -10 0 -40 8 -67
17 -54 8 -82 -23 -82 -30 0 -25 -17 29 -90 41 -56 49 -75 53 -123 l5 -56 -47
6 c-30 3 -50 1 -54 -6 -4 -6 -7 -72 -7 -146 0 -74 -3 -137 -7 -139 -13 -8 -50
31 -75 80 -14 27 -35 63 -46 79 -14 20 -21 46 -21 77 0 26 -9 70 -20 98 -32
82 -29 90 34 90 40 0 55 4 60 16 14 38 6 51 -50 77 -52 23 -55 26 -36 36 11 6
33 11 48 11 15 0 44 5 65 12 36 10 39 14 39 47 0 31 -5 40 -40 61 -47 29 -60
60 -60 147 0 35 -5 74 -11 86 -14 30 27 -17 102 -117z"/>
<path d="M3212 4823 c-24 -8 -54 -29 -70 -49 -32 -40 -82 -49 -82 -14 0 17 -7
20 -44 20 -33 0 -122 -28 -143 -44 -2 -1 1 -17 6 -34 8 -25 5 -45 -12 -90
l-21 -59 24 -32 c26 -37 110 -95 121 -84 4 5 14 35 24 68 17 63 39 105 54 105
5 0 12 -16 16 -36 8 -46 76 -121 130 -144 36 -15 132 -87 223 -166 30 -27 33
-36 44 -117 l11 -88 38 -20 c29 -15 39 -26 39 -44 0 -27 51 -70 126 -107 l41
-21 112 38 c61 20 111 40 111 44 0 4 -26 16 -58 25 -88 27 -95 44 -86 231 l7
148 34 30 c30 27 33 34 33 86 l0 58 -67 64 c-91 87 -153 128 -232 153 -36 12
-94 38 -127 59 -57 34 -67 37 -135 36 -41 0 -93 -7 -117 -16z"/>
<path d="M4493 4558 c-31 -15 -29 -25 16 -96 22 -33 47 -89 56 -124 14 -52 25
-70 63 -105 31 -29 55 -43 74 -43 41 0 35 23 -19 81 -25 27 -44 52 -41 55 3 3
39 -11 79 -30 41 -19 86 -38 100 -41 25 -6 26 -4 32 45 10 83 4 90 -141 154
-76 34 -141 69 -158 87 -31 32 -30 32 -61 17z"/>
<path d="M4088 4516 c-20 -6 -46 -23 -58 -38 -12 -16 -31 -28 -42 -28 -19 0
-20 -4 -13 -57 8 -69 28 -101 74 -120 l36 -15 42 46 c28 31 47 65 58 104 19
63 15 74 -30 101 -25 15 -36 16 -67 7z"/>
<path d="M2775 1843 l-30 -17 90 -17 c106 -20 149 -37 227 -90 54 -37 60 -39
112 -33 45 5 56 11 65 32 7 13 10 26 9 27 -20 17 -95 44 -138 49 -30 4 -101
20 -159 37 -120 33 -135 34 -176 12z"/>
<path d="M3335 1733 c-11 -2 -30 -6 -42 -9 -17 -3 -23 -11 -23 -33 0 -26 5
-30 56 -46 43 -13 73 -16 126 -11 39 3 75 9 80 12 5 4 -9 17 -31 31 -23 13
-41 30 -41 37 0 8 -7 17 -16 20 -17 7 -77 6 -109 -1z"/>
</g>
</svg>
